Simulation
nRows=15
nColumns=15
endheader
time  TH_x TH_y TH_z SC_y  SC_z  SC_x  AC_y  AC_z  AC_x  GH_y  GH_z  GH_yy  EL_x  PS_y
4.133333333333333  0.000000  0.000000  0.000000  -20.223119585588087  4.75917656648451  15.874964717995361  58.108306857317444  13.504591329389964  3.6154068010004425  50.08592661216709  57.5344589530537  -51.85995550415945  10.966247936980396  120.000000
4.173856209150326  0.000000  0.000000  0.000000  -20.191604108664627  4.5433897900636175  15.571402754342387  58.33379298076867  13.35281644981908  3.3065109191244675  51.01104020297086  57.41151446892104  -52.959842073950036  10.604577761798293  120.000000
4.2143790849673195  0.000000  0.000000  0.000000  -20.20203336334197  4.334488037489907  15.286396935097349  58.584631024311086  13.208020009116012  3.0390147114627455  51.99073581186598  57.31737297160967  -54.024541334518155  10.26003209532659  120.000000
4.254901960784313  0.000000  0.000000  0.000000  -20.254928176227494  4.135785866136884  15.032745111283417  58.85909907980867  13.074313188477971  2.8175869894684045  53.01021438784688  57.25386549614854  -55.03934965096742  9.940791971715031  120.000000
4.295424836601307  0.000000  0.000000  0.000000  -20.34574749283854  3.9506693426750243  14.820284374180188  59.15398362122156  12.952856960497343  2.643521241957015  54.05323642406047  57.22095400067353  -55.995262476313194  9.653378968145777  120.000000
4.3359477124183  0.000000  0.000000  0.000000  -20.4652675174668  3.7825645684027216  14.65502316515414  59.46408733465851  12.841778776429393  2.515307612027467  55.10228969703837  57.2170170682799  -56.888265383449024  9.402318699654995  120.000000
4.376470588235294  0.000000  0.000000  0.000000  -20.60105106797162  3.634370159347404  14.539476327080115  59.782475210830206  12.737119918083458  2.4290396837402963  56.13889044367272  57.23863729313294  -57.71720728406884  9.190596009563988  120.000000
4.416993464052287  0.000000  0.000000  0.000000  -20.73995348889303  3.5077355601624847  14.473588524789768  60.10123790007743  12.634073569716683  2.3785699225841395  57.144548931464264  57.28061339670352  -58.48157312185415  9.02082385482454  120.000000
4.45751633986928  0.000000  0.000000  0.000000  -20.87013614545933  3.402870960218312  14.455644444924596  60.41220255962295  12.527930107781586  2.356055961485943  58.10183584969687  57.33626423190535  -59.1800412867732  8.895669601633179  120.000000
4.498039215686274  0.000000  0.000000  0.000000  -20.98233374340728  3.3186599650028983  14.482980775375172  60.70766411467258  12.4146865974351  2.3527162872147405  58.99543297360424  57.39790382296088  -59.81006453474346  8.817678409203504  120.000000
4.538562091503268  0.000000  0.000000  0.000000  -21.070572061956096  3.2529894061466575  14.55240142174711  60.981126017953365  12.29131740827855  2.359699508707544  59.81328982584541  57.45764545296481  -60.368395608975774  8.788592100617663  120.000000
4.579084967320261  0.000000  0.000000  0.000000  -21.132335215429006  3.2031669941382277  14.660484655967187  61.228006496972526  12.155897324303625  2.369045550600657  60.547667060860554  57.508378580147465  -60.85233680729773  8.80800662384669  120.000000
4.6196078431372545  0.000000  0.000000  0.000000  -21.16845179107219  3.1662919111176353  14.803812172080157  61.446123506156546  12.007676114830252  2.3744467503404696  61.19579998690038  57.544834301275294  -61.261248901278165  8.872059627287284  120.000000
4.660130718954248  0.000000  0.000000  0.000000  -21.18269993056756  3.1396406308640863  14.979031494181589  61.63572861009966  11.847079286248277  2.371653719206616  61.75978351931851  57.56439818323687  -61.597798487845445  8.973088044476395  120.000000
4.700653594771241  0.000000  0.000000  0.000000  -21.180915378166453  3.1209392586835047  15.182685745074393  61.798970493953014  11.67554096421453  2.3584787894392507  62.245589385299  57.567389152179466  -61.868559209324154  9.100483475862262  120.000000
